<?xml version="1.0" encoding="UTF-8" standalone="no"?>
<svg
   xmlns:dc="http://purl.org/dc/elements/1.1/"
   xmlns:cc="http://creativecommons.org/ns#"
   xmlns:rdf="http://www.w3.org/1999/02/22-rdf-syntax-ns#"
   xmlns:svg="http://www.w3.org/2000/svg"
   xmlns="http://www.w3.org/2000/svg"
   xmlns:sodipodi="http://sodipodi.sourceforge.net/DTD/sodipodi-0.dtd"
   xmlns:inkscape="http://www.inkscape.org/namespaces/inkscape"
   version="1.1"
   viewBox="-10 0 1060 1060"
   id="svg6"
   sodipodi:docname="favicon.svg"
   width="1060"
   height="1060"
   inkscape:version="0.92.4 5da689c313, 2019-01-14"
   inkscape:export-filename="/home/pradish/dev/my_site/favicon.png"
   inkscape:export-xdpi="96"
   inkscape:export-ydpi="96">
  <metadata
     id="metadata12">
    <rdf:RDF>
      <cc:Work
         rdf:about="">
        <dc:format>image/svg+xml</dc:format>
        <dc:type
           rdf:resource="http://purl.org/dc/dcmitype/StillImage" />
        <dc:title></dc:title>
      </cc:Work>
    </rdf:RDF>
  </metadata>
  <defs
     id="defs10" />
  <sodipodi:namedview
     pagecolor="#ffffff"
     bordercolor="#666666"
     borderopacity="1"
     objecttolerance="10"
     gridtolerance="10"
     guidetolerance="10"
     inkscape:pageopacity="0"
     inkscape:pageshadow="2"
     inkscape:window-width="1920"
     inkscape:window-height="1057"
     id="namedview8"
     showgrid="false"
     inkscape:zoom="0.21851852"
     inkscape:cx="1227.4898"
     inkscape:cy="-286.73566"
     inkscape:window-x="0"
     inkscape:window-y="0"
     inkscape:window-maximized="0"
     inkscape:current-layer="g4" />
  <g
     transform="matrix(1,0,0,-1,0,790)"
     id="g4">
    <g
       id="g93"
       inkscape:export-xdpi="96"
       inkscape:export-ydpi="96"
       style="fill:#000000">
      <path
         inkscape:connector-curvature="0"
         style="fill:#000000"
         id="path2"
         d="M 110,70 H 210 V -30 H 110 Z m 240,0 H 450 V -30 H 350 Z m 120,0 H 570 V -30 H 470 Z m 120,0 H 690 V -30 H 590 Z m 120,0 H 810 V -30 H 710 Z m 120,0 H 930 V -30 H 830 Z M 110,190 H 210 V 90 H 110 Z m 240,0 H 450 V 90 H 350 Z m 120,0 H 570 V 90 H 470 Z m 120,0 H 690 V 90 H 590 Z m 120,0 H 810 V 90 H 710 Z m 120,0 H 930 V 90 H 830 Z M 110,-50 H 210 V -150 H 110 Z m 240,0 H 450 V -150 H 350 Z m 120,0 H 570 V -150 H 470 Z m 120,0 H 690 V -150 H 590 Z m 120,0 H 810 V -150 H 710 Z m 120,0 H 930 V -150 H 830 Z M 110,430 H 210 V 330 H 110 Z m 240,0 H 450 V 330 H 350 Z m 120,0 H 570 V 330 H 470 Z m 120,0 H 690 V 330 H 590 Z m 240,0 H 930 V 330 H 830 Z M 110,550 H 210 V 450 H 110 Z m 240,0 H 450 V 450 H 350 Z m 120,0 H 570 V 450 H 470 Z m 120,0 H 690 V 450 H 590 Z m 240,0 H 930 V 450 H 830 Z M 110,310 H 210 V 210 H 110 Z m 600,0 H 810 V 210 H 710 Z m 120,0 H 930 V 210 H 830 Z M 110,670 H 210 V 570 H 110 Z m 600,0 H 810 V 570 H 710 Z m 120,0 H 930 V 570 H 830 Z M 110,790 H 210 V 690 H 110 Z m 120,0 H 330 V 690 H 230 Z m 120,0 H 450 V 690 H 350 Z m 120,0 H 570 V 690 H 470 Z m 120,0 H 690 V 690 H 590 Z m 120,0 H 810 V 690 H 710 Z m 120,0 H 930 V 690 H 830 Z M 110,-170 H 210 V -270 H 110 Z m 120,0 H 330 V -270 H 230 Z m 120,0 H 450 V -270 H 350 Z m 120,0 H 570 V -270 H 470 Z m 120,0 H 690 V -270 H 590 Z m 120,0 H 810 V -270 H 710 Z m 120,0 H 930 V -270 H 830 Z" />
      <path
         sodipodi:nodetypes="ccccccccccccccccccccccccccccccccccccccccccccc"
         inkscape:connector-curvature="0"
         style="fill:#000000"
         id="path2-3"
         d="m 950,69.999996 h 100 v -100 H 950 Z M 950,190 h 100 V 89.999996 H 950 Z m 0,-240.000004 h 100 V -150 H 950 Z M 950,430 h 100 V 330 H 950 Z m 0,120 h 100 V 450 H 950 Z m 0,-240 h 100 V 210 H 950 Z m 0,360 h 100 V 570 H 950 Z m 0,120 h 100 V 690 H 950 Z m 0,-960 h 100 V -270 H 950 Z" />
      <path
         sodipodi:nodetypes="ccccccccccccccccccccccccccccccccccccccccccccc"
         inkscape:connector-curvature="0"
         style="fill:#000000"
         id="path2-3-6"
         d="M -10,70.000009 H 90.000105 V -29.999996 H -10 Z m 0,120.000001 H 90.000105 V 90.000009 H -10 Z m 0,-240.000006 H 90.000105 V -150 H -10 Z M -10,430 H 90.000105 V 330 H -10 Z m 0,120 H 90.000105 V 450 H -10 Z m 0,-240 H 90.000105 V 210 H -10 Z m 0,360 H 90.000105 V 570 H -10 Z m 0,120 H 90.000105 V 690 H -10 Z m 0,-960 H 90.000105 V -270 H -10 Z" />
    </g>
  </g>
</svg>
